<?xml version="1.0" standalone="no"?>
<!DOCTYPE svg PUBLIC "-//W3C//DTD SVG 20010904//EN"
 "http://www.w3.org/TR/2001/REC-SVG-20010904/DTD/svg10.dtd">
<svg version="1.0" xmlns="http://www.w3.org/2000/svg"
 width="956.000000pt" height="957.000000pt" viewBox="0 0 956.000000 957.000000"
 preserveAspectRatio="xMidYMid meet">

<g transform="translate(0.000000,957.000000) scale(0.100000,-0.100000)"
fill="#000000" stroke="none">
<path d="M4520 9134 c-243 -47 -653 -348 -745 -548 -32 -67 -65 -197 -65 -249
0 -14 -16 -51 -35 -83 -45 -75 -71 -143 -106 -284 -35 -139 -45 -210 -31 -210
10 0 24 47 42 149 46 258 209 526 362 596 83 37 207 58 312 52 105 -5 187 -32
258 -84 77 -55 180 -209 293 -434 125 -247 203 -367 301 -459 240 -227 249
-239 304 -437 53 -191 71 -334 77 -591 5 -222 5 -234 -14 -255 -11 -12 -39
-51 -63 -85 -80 -120 -190 -239 -289 -311 -161 -118 -559 -247 -821 -267 -163
-12 -476 43 -576 101 -54 32 -75 65 -109 165 -19 58 -25 96 -25 167 0 90 -1
95 -44 178 -25 46 -41 87 -37 89 4 3 32 -41 61 -97 62 -121 90 -154 145 -168
95 -26 385 80 385 141 0 10 -10 22 -22 26 -19 6 -19 7 -5 16 41 23 11 40 -157
88 -77 22 -122 30 -168 28 -53 -2 -68 1 -95 21 -32 24 -64 25 -129 6 -49 -15
-139 254 -139 415 0 76 5 100 48 221 26 75 50 157 53 183 8 54 -1 52 177 34
108 -11 117 -14 117 -33 0 -23 -97 -203 -158 -293 -60 -88 -92 -154 -92 -188
0 -56 126 -174 184 -174 9 0 22 14 31 30 19 37 29 37 85 -1 41 -28 50 -31 110
-26 77 5 127 28 141 65 13 33 -6 135 -24 129 -7 -2 -10 -15 -7 -28 2 -13 4
-42 5 -63 0 -34 -4 -42 -33 -59 -51 -30 -127 -28 -179 5 -67 44 -90 46 -110 9
-10 -17 -23 -31 -29 -31 -20 0 -101 58 -122 88 -36 50 -29 88 34 188 78 123
163 270 181 312 18 44 10 80 -20 86 -12 3 -82 10 -154 17 l-133 12 0 52 c0 70
30 100 98 99 66 -1 102 -23 162 -100 47 -59 54 -65 67 -51 13 13 14 26 5 90
-7 42 -21 100 -32 129 -27 72 -106 186 -149 215 -62 42 -128 26 -163 -39 -19
-37 -23 -60 -25 -172 -2 -154 -8 -165 -98 -177 -31 -4 -60 -10 -63 -14 -12
-12 28 -33 76 -40 99 -14 95 -11 89 -74 -4 -31 -22 -99 -41 -151 -57 -152 -70
-224 -56 -314 18 -118 58 -256 92 -316 20 -36 31 -67 29 -88 -1 -23 10 -51 36
-93 36 -59 37 -65 44 -183 6 -102 12 -135 39 -204 58 -150 134 -190 473 -247
33 -5 43 -14 78 -68 60 -93 80 -171 77 -297 l-3 -104 -55 -13 c-30 -6 -140
-31 -245 -53 -274 -60 -382 -93 -508 -156 -130 -66 -271 -186 -351 -299 -147
-206 -235 -475 -179 -544 28 -35 87 -40 223 -19 153 24 217 23 463 -7 500 -60
757 -111 1157 -230 277 -83 614 -203 573 -204 -13 -1 -213 46 -445 103 -765
189 -818 200 -1253 265 -363 55 -465 59 -585 25 -75 -22 -101 -37 -148 -85
-70 -71 -104 -168 -121 -349 -14 -146 -18 -989 -7 -1440 10 -407 5 -521 -40
-980 -22 -229 -54 -513 -69 -627 -5 -33 -3 -43 8 -43 10 0 16 17 20 53 3 28
22 194 41 367 72 650 84 906 66 1394 -17 448 -2 1300 24 1406 46 187 120 263
282 291 71 12 226 7 339 -11 33 -5 166 -25 295 -44 290 -43 450 -77 1035 -221
529 -130 625 -151 650 -141 49 19 -57 69 -370 174 -548 185 -982 279 -1566
337 -157 16 -175 16 -295 0 -232 -31 -219 -31 -249 -1 -24 25 -26 31 -20 79 9
70 47 182 91 270 107 214 251 360 454 462 112 56 207 85 430 135 460 101 584
136 703 197 81 40 42 49 -44 9 -78 -36 -228 -86 -257 -86 -15 0 -17 13 -17
113 0 126 -13 176 -70 270 -19 32 -35 59 -35 61 0 2 62 6 138 9 149 6 250 25
434 81 328 100 497 215 682 464 42 57 76 97 76 90 0 -48 -65 -322 -129 -548
-22 -74 -53 -189 -71 -255 -17 -66 -47 -153 -66 -193 -87 -189 -76 -283 104
-927 138 -493 146 -531 146 -715 0 -92 -7 -215 -18 -304 -31 -249 -11 -348 87
-413 97 -65 233 -87 487 -80 186 6 304 23 363 54 16 8 31 12 34 9 3 -3 -14
-72 -37 -153 -52 -183 -138 -524 -230 -913 -210 -892 -257 -1203 -230 -1510
12 -149 16 -170 32 -170 7 0 8 17 4 48 -12 92 -17 358 -9 447 l8 89 77 13
c173 29 244 77 308 206 47 95 74 210 95 400 31 286 30 502 -6 1047 -12 179
-15 198 -29 184 -6 -6 -3 -96 7 -234 23 -318 23 -851 0 -1025 -50 -372 -121
-493 -317 -539 -70 -17 -130 -21 -130 -8 0 44 57 338 120 627 171 777 358
1493 411 1573 15 24 42 87 60 140 46 138 72 193 110 229 47 44 91 61 269 100
218 47 270 77 286 160 13 69 -15 127 -196 415 -186 297 -216 408 -355 1315
-57 378 -127 722 -185 918 -60 201 -108 400 -155 645 -55 282 -87 365 -222
567 -84 126 -228 284 -306 336 -28 19 -106 62 -172 96 -123 64 -155 89 -155
122 0 14 7 19 28 19 38 0 212 -86 287 -142 130 -96 163 -139 362 -463 98 -160
143 -219 187 -246 39 -24 38 -24 76 8 58 49 108 199 136 413 32 248 -11 463
-150 737 -112 222 -277 390 -528 539 -151 89 -267 127 -523 170 -82 13 -231
41 -330 61 -146 28 -208 36 -325 38 -80 2 -156 1 -170 -1z m405 -49 c72 -14
234 -43 360 -65 251 -43 392 -82 500 -138 201 -103 418 -287 510 -432 108
-169 185 -356 220 -535 39 -201 -13 -565 -100 -697 -56 -85 -85 -53 -366 404
-107 174 -230 284 -423 379 -106 52 -144 59 -170 33 -46 -45 7 -101 179 -189
72 -37 154 -86 184 -108 110 -85 279 -303 362 -469 57 -113 82 -199 124 -418
20 -107 54 -262 76 -345 131 -497 197 -781 224 -965 3 -25 13 -85 20 -135 8
-49 28 -180 45 -290 67 -441 121 -699 174 -834 36 -90 110 -226 205 -374 103
-160 141 -239 141 -293 0 -83 -55 -117 -255 -158 -279 -58 -318 -89 -395 -311
-49 -141 -78 -195 -124 -230 -78 -59 -375 -98 -588 -76 -204 21 -309 68 -349
154 -24 54 -25 187 -3 352 24 174 23 376 -4 495 -25 117 -86 346 -142 540
-110 379 -146 558 -138 688 4 63 13 96 50 183 25 58 55 146 67 196 11 50 34
135 50 189 129 444 161 612 161 849 0 254 -46 566 -108 743 -46 129 -85 184
-210 296 -62 56 -132 126 -156 156 -48 61 -127 196 -231 395 -153 292 -238
401 -359 460 -124 60 -262 68 -434 24 -96 -24 -144 -53 -221 -131 -33 -34 -61
-58 -61 -52 0 35 44 175 72 227 38 71 139 177 255 265 191 145 345 221 498
246 57 9 231 -5 360 -29z m-1323 -1364 c63 -24 157 -171 183 -287 23 -106 18
-116 -30 -56 -23 29 -58 60 -82 72 -50 24 -131 27 -159 5 -10 -8 -22 -15 -25
-15 -24 -1 -9 208 17 248 13 20 44 39 66 41 4 1 17 -3 30 -8z m-142 -396 c0
-19 -5 -25 -22 -25 -13 0 -29 4 -36 9 -10 6 -7 10 12 15 14 3 26 11 26 16 0 6
5 10 10 10 6 0 10 -11 10 -25z m182 -960 c31 -21 49 -25 109 -25 71 0 259 -44
259 -61 0 -8 -137 -2 -231 11 -36 5 -89 19 -117 31 -89 37 -109 1 -26 -47 45
-26 50 -27 337 -52 48 -4 89 -11 90 -17 1 -5 -21 -22 -48 -37 -112 -61 -256
-92 -314 -68 -29 12 -73 67 -92 116 -5 15 -25 53 -44 86 -19 32 -35 61 -35 63
0 4 50 21 70 24 3 1 22 -10 42 -24z"/>
<path d="M4298 3213 c-3 -4 2 -91 10 -193 21 -263 20 -1054 -2 -1159 -22 -107
-55 -157 -123 -188 -54 -25 -60 -26 -212 -20 -86 4 -277 11 -426 16 -148 6
-341 15 -427 21 -155 11 -228 5 -243 -20 -11 -17 14 -48 47 -59 35 -11 191
-33 348 -51 52 -5 136 -14 186 -20 70 -8 126 -6 250 6 264 26 373 11 412 -60
13 -24 17 -53 15 -131 -2 -111 -28 -227 -127 -575 -50 -174 -92 -371 -126
-590 -6 -41 -14 -83 -16 -92 -4 -12 0 -18 9 -18 10 0 18 15 22 43 38 246 83
464 131 632 166 586 176 725 61 795 -65 40 -126 44 -343 26 -215 -19 -217 -19
-543 20 -213 25 -291 40 -291 56 0 19 42 21 240 9 267 -16 724 -35 870 -35
129 -1 174 10 226 57 92 80 104 161 104 687 0 499 -24 895 -52 843z"/>
<path d="M2642 3115 c-42 -45 -85 -105 -110 -152 -109 -210 -123 -342 -103
-980 13 -404 11 -519 -25 -1096 -9 -142 -13 -261 -10 -265 17 -16 24 39 42
326 19 309 24 706 15 1362 -3 234 -1 301 13 373 34 185 84 287 208 429 32 36
54 69 49 72 -5 3 -40 -28 -79 -69z"/>
<path d="M1640 1970 c-8 -5 -12 -12 -9 -15 8 -8 39 5 39 16 0 11 -11 11 -30
-1z"/>
<path d="M1745 1960 c3 -5 8 -10 11 -10 2 0 4 5 4 10 0 6 -5 10 -11 10 -5 0
-7 -4 -4 -10z"/>
<path d="M1620 1930 c0 -5 5 -10 11 -10 5 0 7 5 4 10 -3 6 -8 10 -11 10 -2 0
-4 -4 -4 -10z"/>
<path d="M1716 1925 c-11 -8 -15 -15 -9 -15 6 0 16 7 23 15 16 19 11 19 -14 0z"/>
<path d="M1711 1887 c-17 -17 -13 -31 4 -17 10 9 15 9 15 1 0 -6 5 -11 11 -11
6 0 27 -17 46 -37 19 -21 32 -33 29 -27 -3 7 1 17 9 24 8 7 12 17 9 22 -3 5
-13 1 -21 -9 -13 -17 -14 -17 -9 0 3 11 0 17 -9 17 -8 0 -15 6 -15 14 0 19
-54 38 -69 23z"/>
<path d="M1665 1824 c-19 -15 -22 -21 -9 -15 18 9 52 41 43 41 -2 0 -17 -12
-34 -26z"/>
<path d="M1849 1808 c-9 -30 -6 -38 12 -33 13 4 21 1 26 -12 8 -20 28 -43 38
-43 3 0 4 4 0 9 -3 5 -1 12 5 16 5 3 10 11 10 18 0 8 -3 8 -12 -1 -17 -17 -31
-15 -24 3 3 8 1 15 -4 15 -6 0 -10 7 -10 15 0 12 -37 23 -41 13z"/>
<path d="M1945 1730 c-3 -6 2 -13 11 -17 10 -4 28 -18 40 -32 14 -16 27 -22
38 -18 25 10 16 43 -11 40 -13 -2 -23 5 -26 17 -5 21 -41 28 -52 10z m95 -40
c0 -5 -8 -10 -17 -10 -15 0 -16 2 -3 10 19 12 20 12 20 0z"/>
<path d="M2071 1661 c-10 -7 -11 -13 -1 -31 10 -18 8 -25 -9 -44 -12 -12 -21
-25 -21 -29 0 -16 16 -5 41 26 30 38 45 77 30 77 -6 0 -11 -7 -11 -15 0 -8 -5
-15 -11 -15 -6 0 -9 9 -6 20 3 11 4 20 4 20 -1 0 -8 -4 -16 -9z"/>
<path d="M2012 1526 c-17 -37 -15 -51 4 -36 18 16 41 56 26 46 -6 -3 -12 -1
-14 5 -2 6 -9 -1 -16 -15z"/>
</g>
</svg>
